<svg width="512" height="512" viewBox="0 0 512 512" fill="none" xmlns="http://www.w3.org/2000/svg">
<path d="M256 512.003V204.803H511.396L512 512.003H466.717L466.113 247.811H301.283V512.003H256Z" fill="url(#paint0_linear_451_30)"/>
<path d="M115.507 436.224H0V0H115.507C178.586 0 224.461 17.408 253.133 52.224C282.214 87.04 296.755 142.336 296.755 218.112C296.755 293.888 282.214 349.184 253.133 384C224.461 418.816 178.586 436.224 115.507 436.224ZM46.08 46.08V390.144H115.507C162.611 390.144 196.813 376.422 218.112 348.979C239.821 321.536 250.675 277.914 250.675 218.112C250.675 158.31 239.821 114.688 218.112 87.2448C196.813 59.8016 162.611 46.08 115.507 46.08H46.08Z" fill="url(#paint1_linear_451_30)"/>
<defs>
<linearGradient id="paint0_linear_451_30" x1="384" y1="204.803" x2="384" y2="512.003" gradientUnits="userSpaceOnUse">
<stop stop-color="#FFD3FD"/>
<stop offset="1" stop-color="#D7F0FF"/>
</linearGradient>
<linearGradient id="paint1_linear_451_30" x1="148.378" y1="0" x2="148.378" y2="436.224" gradientUnits="userSpaceOnUse">
<stop stop-color="#DCFFD9"/>
<stop offset="1" stop-color="#F4B6B6"/>
</linearGradient>
</defs>
</svg>
